<svg width="20" height="20" fill='#2fc885' viewBox="0 0 20 20" xmlns="http://www.w3.org/2000/svg" class="base-0-2-1"
  ie-style="">
  <path fill-rule="evenodd" clip-rule="evenodd"
    d="M6.5 3H11c2.4853 0 4.5 2.01472 4.5 4.5S13.4853 12 11 12H7.5v1h5c.5523 0 1 .4477 1 1s-.4477 1-1 1h-5v1c0 .5523-.44772 1-1 1s-1-.4477-1-1v-1c-.55228 0-1-.4477-1-1s.44772-1 1-1v-1c-.55228 0-1-.4477-1-1s.44772-1 1-1V4c0-.55228.44772-1 1-1zm1 7H11c1.3807 0 2.5-1.11929 2.5-2.5S12.3807 5 11 5H7.5v5z">
  </path>
</svg>
