<svg width="20" height="20" fill='#e60000' viewBox="0 0 20 20" xmlns="http://www.w3.org/2000/svg" class="base-0-2-1"
  ie-style="">
  <path fill-rule="evenodd" clip-rule="evenodd"
    d="M11 3c0 .55228-.4477 1-1 1-.55228 0-1-.44772-1-1s.44772-1 1-1c.5523 0 1 .44772 1 1zm-.0667 9.8626c-.0759.5471.3061 1.052.8532 1.1279.8611.1194 1.1335.5661 1.1956.8397.0793.3491-.0878.4286-.1079.4366L10 15.9705l-2.87422-.7037c-.02011-.008-.18717-.0875-.10791-.4366.06211-.2736.33454-.7203 1.19567-.8397.54705-.0759.92902-.5808.85315-1.1279-.07402-.5337-.5565-.9103-1.08799-.8579A1.02425 1.02425 0 007.88068 12c-.15277 0-.58915-.0433-1.13769-.1964-.54137-.151-1.12588-.391-1.61349-.7428-.48034-.3465-.84121-.7813-1.0136-1.33595-.1719-.55315-.1921-1.34046.21669-2.45851a.99988.99988 0 00.04808-.50245l1.06498.6462c.21932.13328.33771.25764.41057.38536.07325.12841.14379.3363.14379.70455 0 .55228.44771 1 1 1 .55228 0 1-.44772 1-1 0-.63175-.12377-1.19978-.40657-1.69554-.28316-.49637-.68287-.84459-1.11029-1.10422l-2.563-1.55516a.99999.99999 0 00-1.39536.37374c-.4263.77661-.47217 1.66865-.2016 2.44599-.39853 1.26887-.41774 2.38642-.11718 3.35359.33014 1.0623 1.01044 1.8284 1.75337 2.3644.48065.3468.99767.6053 1.49068.7966-.1813.2811-.30987.5878-.38255.908-.24349 1.0724.19204 2.4505 1.54312 2.8121l.02074.0053 3.1118.7619A.99517.99517 0 0010 18.0002a.99511.99511 0 00.2568-.0335l3.1118-.7619.0208-.0053c1.3511-.3616 1.7866-1.7397 1.5431-2.8121-.0759-.3345-.2128-.6542-.4071-.9455.4641-.1872.9459-.4345 1.3959-.7591.7429-.536 1.4232-1.3021 1.7534-2.3644.3005-.96717.2813-2.08472-.1172-3.35359.2706-.77734.2247-1.66938-.2016-2.44599a1.00034 1.00034 0 00-.6179-.48477 1.00005 1.00005 0 00-.7775.11103l-2.563 1.55516c-.4274.25963-.8271.60785-1.1103 1.10422-.2828.49576-.4065 1.06379-.4065 1.69554 0 .55228.4477 1 1 1s1-.44772 1-1c0-.36825.0705-.57614.1438-.70455.0728-.12772.1912-.25208.4105-.38536l1.065-.6462a.99955.99955 0 00.0481.50245c.4088 1.11805.3886 1.90536.2167 2.45851-.1724.55465-.5333.98945-1.0136 1.33595-.4876.3518-1.0721.5918-1.6135.7428C12.5891 11.9567 12.1528 12 12 12a.92464.92464 0 00-.0373.0007c-.5079-.0204-.9581.3479-1.0294.8619zM7.60558 5.05276c.24699-.49398.84766-.6942 1.34164-.44721.3515.17575.72469.37594 1.05278.64272.3281-.26678.7013-.46697 1.0528-.64272.494-.24699 1.0946-.04677 1.3416.44721.247.49398.0468 1.09465-.4472 1.34164-.4975.24874-.7006.39524-.8046.51977-.0611.07314-.142.19864-.1426.58137v.00444c0 .55228-.4477.99999-1 .99999a1.01007 1.01007 0 01-.10224-.00516c-.20061-.02037-.38369-.10004-.53144-.22121C9.14268 8.09021 9 7.81176 9 7.49998v-.00444c-.00062-.38273-.08154-.50823-.14262-.58137-.10396-.12453-.30711-.27103-.80459-.51977-.49398-.24699-.6942-.84766-.44721-1.34164z">
  </path>
</svg>
