<svg width="16" height="16" viewBox="0 0 16 16" fill="none" xmlns="http://www.w3.org/2000/svg">
<path fill-rule="evenodd" clip-rule="evenodd" d="M11.6569 2.92891C10.4853 1.75734 8.58583 1.75734 7.41425 2.92891L5.29293 5.05023C4.90241 5.44076 4.90241 6.07392 5.29293 6.46445L6.00004 7.17155C6.18758 7.35909 6.29293 7.61344 6.29293 7.87866C6.29293 8.14388 6.18758 8.39823 6.00004 8.58576L2.05029 12.5355V13.9497H3.62394L7.39982 10.0147C7.58592 9.82077 7.84226 9.70991 8.11104 9.70714C8.37982 9.70437 8.6384 9.80991 8.82847 9.99998L9.53557 10.7071C9.9261 11.0976 10.5593 11.0976 10.9498 10.7071L13.0711 8.58577C14.2427 7.41419 14.2427 5.5147 13.0711 4.34312L11.6569 2.92891ZM6.00004 1.5147C7.95266 -0.437923 11.1185 -0.437923 13.0711 1.5147L14.4853 2.92891C16.4379 4.88153 16.4379 8.04736 14.4853 9.99998L12.364 12.1213C11.1973 13.288 9.30887 13.2929 8.13615 12.136L4.77184 15.6421C4.58326 15.8386 4.32267 15.9497 4.05029 15.9497H1.05029C0.498008 15.9497 0.050293 15.502 0.050293 14.9497V12.1213C0.050293 11.8561 0.15565 11.6017 0.343186 11.4142L3.87872 7.87866C2.70715 6.70709 2.70715 4.80759 3.87872 3.63602L6.00004 1.5147ZM8.82843 4.34319C9.21896 3.95267 9.85212 3.95267 10.2426 4.34319L11.6569 5.75741C12.0474 6.14793 12.0474 6.7811 11.6569 7.17162C11.2663 7.56215 10.6332 7.56215 10.2426 7.17162L8.82843 5.75741C8.43791 5.36688 8.43791 4.73372 8.82843 4.34319Z" fill="#EEAC2C"/>
</svg>
