<svg width="20" height="20" viewBox="0 0 20 20" fill="#09a6fa" xmlns="http://www.w3.org/2000/svg" class="base-0-2-1"
  ie-style="">
  <path fill-rule="evenodd" clip-rule="evenodd"
    d="M5 3C3.18017 3 2 4.70069 2 6.4c0 .6099.18585 1.15632.36369 1.58928.07464.18171.15672.36347.23005.52583l.04183.09274c.08698.19339.15987.36027.21854.51904C2.94271 9.36664 3 9.66561 3 10c0 .3344-.05729.6334-.14589.8731-.05867.1588-.13156.3257-.21854.519l-.04183.0928c-.07333.1624-.15541.3441-.23005.5258C2.18585 12.4437 2 12.9901 2 13.6 2 15.2993 3.18017 17 5 17h10c1.8198 0 3-1.7007 3-3.4 0-.6099-.1858-1.1563-.3637-1.5893-.0746-.1817-.1567-.3634-.23-.5258l-.0419-.0928c-.087-.1933-.1598-.3602-.2185-.519C17.0573 10.6334 17 10.3344 17 10c0-.33439.0573-.63336.1459-.87312.0587-.15876.1315-.32564.2185-.51903l.0419-.09273c.0733-.16236.1554-.34413.23-.52584C17.8142 7.55632 18 7.0099 18 6.4 18 4.70069 16.8198 3 15 3H5zM4 6.4C4 5.44834 4.61069 5 5 5h6v1c0 .55228.4477 1 1 1s1-.44772 1-1V5h2c.3893 0 1 .44834 1 1.4 0 .21603-.0671.47237-.2137.82938-.0604.14694-.1257.29166-.1988.45362l-.0471.10445c-.0883.19648-.186.41757-.2705.64617C15.0943 8.90873 15 9.44375 15 10c0 .5562.0943 1.0913.2699 1.5664.0845.2286.1822.4497.2705.6462l.0471.1044c.0731.162.1384.3067.1988.4536.1466.357.2137.6134.2137.8294 0 .9517-.6107 1.4-1 1.4h-2v-1c0-.5523-.4477-1-1-1s-1 .4477-1 1v1H5c-.38931 0-1-.4483-1-1.4 0-.216.06706-.4724.2137-.8294.06036-.1469.12568-.2916.19878-.4536l.04708-.1044c.08837-.1965.18607-.4176.27055-.6462C4.90569 11.0913 5 10.5562 5 10c0-.55625-.09431-1.09127-.26989-1.56638-.08448-.22859-.18218-.44969-.27055-.64617l-.04709-.10444c-.0731-.16197-.13841-.30668-.19877-.45363C4.06706 6.87237 4 6.61603 4 6.4zM12 8c-.5523 0-1 .44772-1 1v2c0 .5523.4477 1 1 1s1-.4477 1-1V9c0-.55228-.4477-1-1-1z">
  </path>
</svg>
