<svg width="20" height="20" viewBox="0 0 20 20" fill="rgb(186, 52, 252)" xmlns="http://www.w3.org/2000/svg"
  class="base-0-2-1" ie-style="">
  <path fill-rule="evenodd" clip-rule="evenodd"
    d="M12.8646 2.89284c1.1716-1.17157 3.0711-1.17157 4.2427 0 1.1715 1.17157 1.1715 3.07107 0 4.24264L14.717 9.52574l2.0386 4.48486c.3687.8113.1956 1.7663-.4346 2.3965-.8721.872-2.299.8275-3.115-.0973l-2.4718-2.8013-.6049.6049.2233 1.2653c.126.7138-.1043 1.4441-.61678 1.9567-1.02183 1.0218-2.73188.8113-3.47537-.4279L5.0725 14.9276l-1.97991-1.1879c-1.23915-.7435-1.44967-2.4536-.42784-3.4754.51253-.51255 1.24289-.74277 1.95668-.61681l1.26526.22328.60491-.60492-2.80128-2.47172c-.92474-.81595-.96929-2.24293-.09725-3.11496.63018-.63019 1.58518-.80337 2.39651-.43458l4.48472 2.03853 2.3903-2.39028zm2.8284 1.41421c-.3905-.39052-1.0236-.39052-1.4142 0l-2.8803 2.88031c-.2947.29475-.7414.37575-1.1209.20326L5.16198 5.06533a.138.138 0 00-.1547.02805c-.05629.05629-.05341.1484.00628.20107l3.59945 3.17599a1 1 0 01.04549 1.45695L6.93274 11.6531a.99986.99986 0 01-.88089.2777l-1.77799-.3137a.22094.22094 0 00-.1949.0614c-.10178.1018-.08081.2721.04262.3462l2.19429 1.3165c.14075.0845.25854.2023.34299.343l1.31657 2.1943c.07406.1235.24439.1444.34617.0426a.2212.2212 0 00.06144-.1949l-.31376-1.7779a.99995.99995 0 01.27767-.8809l1.72575-1.7258a1.00003 1.00003 0 011.457.0455l3.176 3.5995c.0527.0597.1448.0626.2011.0063a.138.138 0 00.028-.1547l-2.3253-5.11574c-.1725-.37948-.0915-.82616.2033-1.12091l2.8802-2.88028c.3906-.39053.3906-1.02369 0-1.41422z">
  </path>
</svg>
